<svg width="86" height="98" viewBox="0 0 86 98" fill="none" xmlns="http://www.w3.org/2000/svg">
<path d="M30.7143 15.3125C30.7143 10.2402 34.8415 6.125 39.9286 6.125H46.0714C51.1585 6.125 55.2857 10.2402 55.2857 15.3125V82.6875C55.2857 87.7598 51.1585 91.875 46.0714 91.875H39.9286C34.8415 91.875 30.7143 87.7598 30.7143 82.6875V15.3125ZM0 52.0625C0 46.9902 4.12723 42.875 9.21429 42.875H15.3571C20.4442 42.875 24.5714 46.9902 24.5714 52.0625V82.6875C24.5714 87.7598 20.4442 91.875 15.3571 91.875H9.21429C4.12723 91.875 0 87.7598 0 82.6875V52.0625ZM70.6429 18.375H76.7857C81.8728 18.375 86 22.4902 86 27.5625V82.6875C86 87.7598 81.8728 91.875 76.7857 91.875H70.6429C65.5558 91.875 61.4286 87.7598 61.4286 82.6875V27.5625C61.4286 22.4902 65.5558 18.375 70.6429 18.375Z" fill="url(#paint0_linear_1_40)"/>
<defs>
<linearGradient id="paint0_linear_1_40" x1="-2" y1="54.5" x2="88" y2="54.5" gradientUnits="userSpaceOnUse">
<stop offset="0.252755" stop-color="#68E2EA"/>
<stop offset="0.697917" stop-color="#B968EA" stop-opacity="0.560754"/>
<stop offset="1" stop-color="#A923CA" stop-opacity="0.58"/>
</linearGradient>
</defs>
</svg>
