<svg width="78" height="78" viewBox="0 0 78 78" fill="none" xmlns="http://www.w3.org/2000/svg">
<path d="M76.7812 39C76.7812 18.1289 59.8711 1.21875 39 1.21875C18.1289 1.21875 1.21875 18.1289 1.21875 39C1.21875 57.8571 15.0348 73.4876 33.0967 76.3242V49.9215H23.499V39H33.0967V30.6759C33.0967 21.2078 38.7334 15.9778 47.3667 15.9778C51.5013 15.9778 55.8248 16.7152 55.8248 16.7152V26.0081H51.0595C46.3673 26.0081 44.9033 28.9209 44.9033 31.9084V39H55.3815L53.7057 49.9215H44.9033V76.3242C62.9652 73.4876 76.7812 57.8571 76.7812 39Z" fill="url(#paint0_linear_1_13)"/>
<defs>
<linearGradient id="paint0_linear_1_13" x1="39" y1="1.21875" x2="39" y2="76.3242" gradientUnits="userSpaceOnUse">
<stop stop-color="#68E2EA"/>
<stop offset="0.479167" stop-color="#B968EA" stop-opacity="0.894583"/>
<stop offset="1" stop-color="#A923CA" stop-opacity="0.78"/>
</linearGradient>
</defs>
</svg>
