<svg width="70" height="80" viewBox="0 0 70 80" fill="none" xmlns="http://www.w3.org/2000/svg">
<g clip-path="url(#clip0_1_11)">
<path d="M35.0156 22.0312C25.0781 22.0312 17.0625 30.0469 17.0625 39.9844C17.0625 49.9219 25.0781 57.9375 35.0156 57.9375C44.9531 57.9375 52.9688 49.9219 52.9688 39.9844C52.9688 30.0469 44.9531 22.0312 35.0156 22.0312ZM35.0156 51.6562C28.5938 51.6562 23.3438 46.4219 23.3438 39.9844C23.3438 33.5469 28.5781 28.3125 35.0156 28.3125C41.4531 28.3125 46.6875 33.5469 46.6875 39.9844C46.6875 46.4219 41.4375 51.6562 35.0156 51.6562V51.6562ZM57.8906 21.2969C57.8906 23.625 56.0156 25.4844 53.7031 25.4844C51.375 25.4844 49.5156 23.6094 49.5156 21.2969C49.5156 18.9844 51.3906 17.1094 53.7031 17.1094C56.0156 17.1094 57.8906 18.9844 57.8906 21.2969ZM69.7813 25.5469C69.5156 19.9375 68.2344 14.9687 64.125 10.875C60.0313 6.78125 55.0625 5.5 49.4531 5.21875C43.6719 4.89063 26.3438 4.89063 20.5625 5.21875C14.9688 5.48437 10 6.76562 5.89063 10.8594C1.78125 14.9531 0.515625 19.9219 0.234375 25.5312C-0.09375 31.3125 -0.09375 48.6406 0.234375 54.4219C0.5 60.0312 1.78125 65 5.89063 69.0938C10 73.1875 14.9531 74.4687 20.5625 74.75C26.3438 75.0781 43.6719 75.0781 49.4531 74.75C55.0625 74.4844 60.0313 73.2031 64.125 69.0938C68.2188 65 69.5 60.0312 69.7813 54.4219C70.1094 48.6406 70.1094 31.3281 69.7813 25.5469V25.5469ZM62.3125 60.625C61.0938 63.6875 58.7344 66.0469 55.6563 67.2812C51.0469 69.1094 40.1094 68.6875 35.0156 68.6875C29.9219 68.6875 18.9688 69.0937 14.375 67.2812C11.3125 66.0625 8.95313 63.7031 7.71875 60.625C5.89063 56.0156 6.3125 45.0781 6.3125 39.9844C6.3125 34.8906 5.90625 23.9375 7.71875 19.3437C8.9375 16.2812 11.2969 13.9219 14.375 12.6875C18.9844 10.8594 29.9219 11.2812 35.0156 11.2812C40.1094 11.2812 51.0625 10.875 55.6563 12.6875C58.7188 13.9062 61.0781 16.2656 62.3125 19.3437C64.1406 23.9531 63.7188 34.8906 63.7188 39.9844C63.7188 45.0781 64.1406 56.0312 62.3125 60.625Z" fill="url(#paint0_linear_1_11)"/>
</g>
<defs>
<linearGradient id="paint0_linear_1_11" x1="35.0078" y1="4.97266" x2="35.0078" y2="74.9961" gradientUnits="userSpaceOnUse">
<stop stop-color="#68E2EA"/>
<stop offset="0.286458" stop-color="#B968EA" stop-opacity="0.713542"/>
<stop offset="1" stop-color="#A923CA" stop-opacity="0.81"/>
</linearGradient>
<clipPath id="clip0_1_11">
<rect width="70" height="80" fill="white"/>
</clipPath>
</defs>
</svg>
