<svg width="78" height="90" viewBox="0 0 78 90" fill="none" xmlns="http://www.w3.org/2000/svg">
<path d="M66.3174 17.0684C59.0223 9.68555 49.3071 5.625 38.9826 5.625C17.6719 5.625 0.330804 23.1328 0.330804 44.6484C0.330804 51.5215 2.1067 58.2363 5.48438 64.1602L0 84.375L20.4924 78.9434C26.1335 82.0547 32.4884 83.6895 38.9652 83.6895H38.9826C60.2759 83.6895 78 66.1816 78 44.666C78 34.2422 73.6125 24.4512 66.3174 17.0684V17.0684ZM38.9826 77.1152C33.2022 77.1152 27.5437 75.5508 22.6165 72.5977L21.45 71.8945L9.29732 75.1113L12.5357 63.1406L11.7696 61.9102C8.54866 56.7422 6.85982 50.7832 6.85982 44.6484C6.85982 26.7715 21.2759 12.2168 39 12.2168C47.5835 12.2168 55.6446 15.5918 61.7036 21.7266C67.7625 27.8613 71.4884 36 71.471 44.666C71.471 62.5605 56.6893 77.1152 38.9826 77.1152V77.1152ZM56.6022 52.8223C55.6446 52.3301 50.8915 49.9746 50.0036 49.6582C49.1156 49.3242 48.4714 49.166 47.8272 50.1504C47.183 51.1348 45.3375 53.3145 44.7629 53.9824C44.2058 54.6328 43.6313 54.7207 42.6737 54.2285C36.9978 51.3633 33.2719 49.1133 29.5286 42.627C28.5362 40.9043 30.521 41.0273 32.3665 37.3008C32.6799 36.6504 32.5232 36.0879 32.2795 35.5957C32.0357 35.1035 30.1031 30.3047 29.3022 28.3535C28.5188 26.4551 27.7179 26.7188 27.1259 26.6836C26.5688 26.6484 25.9246 26.6484 25.2804 26.6484C24.6362 26.6484 23.5915 26.8945 22.7036 27.8613C21.8156 28.8457 19.3259 31.2012 19.3259 36C19.3259 40.7988 22.7906 45.4395 23.2607 46.0898C23.7482 46.7402 30.0683 56.584 39.7661 60.8203C45.8946 63.4922 48.2973 63.7207 51.3616 63.2637C53.2246 62.9824 57.0723 60.9082 57.8732 58.623C58.6741 56.3379 58.6741 54.3867 58.4304 53.9824C58.204 53.543 57.5598 53.2969 56.6022 52.8223Z" fill="url(#paint0_linear_1_9)"/>
<defs>
<linearGradient id="paint0_linear_1_9" x1="39" y1="5.625" x2="39" y2="84.375" gradientUnits="userSpaceOnUse">
<stop stop-color="#68E2EA"/>
<stop offset="0.463542" stop-color="#B968EA" stop-opacity="0.536458"/>
<stop offset="1" stop-color="#A923CA" stop-opacity="0.63"/>
</linearGradient>
</defs>
</svg>
